<svg width="1440" height="795" viewBox="0 0 1440 795" fill="none" xmlns="http://www.w3.org/2000/svg">
<mask id="mask0" mask-type="alpha" maskUnits="userSpaceOnUse" x="0" y="0" width="1440" height="969">
<path d="M0 0H1440C1440 331.165 1440 516.835 1440 848C912 848 577.447 1119.19 0 848V0Z" fill="#C4C4C4"/>
</mask>
<g mask="url(#mask0)">
<mask id="mask1" mask-type="alpha" maskUnits="userSpaceOnUse" x="0" y="0" width="1440" height="958">
<path d="M0 0H1440C1440 331.165 1440 516.835 1440 848C961 793 577.447 1119.19 0 848V0Z" fill="#489DD7"/>
</mask>
<g mask="url(#mask1)">
<path d="M0 0H1440C1440 448.322 1440 699.678 1440 1148C1051.5 603.106 577.447 1299.2 0 932.073V0Z" fill="#090F3F"/>
<mask id="mask2" mask-type="alpha" maskUnits="userSpaceOnUse" x="-249" y="-519" width="1252" height="1180">
<path opacity="0.5" d="M-70.268 250.257C-110.297 235.97 -133.286 193.977 -123.751 152.56L-33.3705 -240.038C-22.989 -285.132 21.9855 -313.276 67.0839 -302.899L808.532 -132.297C859.842 -120.49 887.677 -64.8454 866.342 -16.7081L667.797 431.321C650.023 471.418 604.328 491.036 563.013 476.287L-70.268 250.257Z" fill="url(#paint0_linear)"/>
</mask>
<g mask="url(#mask2)">
<path opacity="0.7" d="M-71.268 249.532C-111.297 235.244 -134.286 193.252 -124.751 151.834L-34.3705 -240.763C-23.989 -285.857 20.9855 -314.001 66.0839 -303.624L807.532 -133.023C858.842 -121.215 886.677 -65.571 865.342 -17.4338L666.797 430.595C649.023 470.693 603.328 490.311 562.013 475.561L-71.268 249.532Z" fill="#FCC22C"/>
</g>
<mask id="mask3" mask-type="alpha" maskUnits="userSpaceOnUse" x="-427" y="395" width="1346" height="1304">
<path d="M684.733 1245.68C702.085 1284.48 687.638 1330.12 651.122 1351.86L304.983 1557.99C265.224 1581.67 213.797 1568.63 190.115 1528.87L-199.237 875.227C-226.18 829.991 -205.221 771.41 -155.692 753.544L305.278 587.241C346.538 572.361 392.304 591.813 410.211 631.861L684.733 1245.68Z" fill="#CF1257"/>
</mask>
<g mask="url(#mask3)">
<path d="M684.9 1246.9C702.252 1285.7 687.805 1331.34 651.289 1353.09L305.15 1559.22C265.392 1582.89 213.964 1569.86 190.282 1530.1L-199.07 876.451C-226.013 831.216 -205.054 772.634 -155.524 754.768L305.445 588.466C346.705 573.586 392.471 593.037 410.378 633.085L684.9 1246.9Z" fill="url(#paint1_linear)"/>
</g>
<mask id="mask4" mask-type="alpha" maskUnits="userSpaceOnUse" x="487" y="185" width="1374" height="1379">
<path d="M1471.28 495.262C1513.09 487.621 1553.99 512.493 1566.44 553.129L1684.47 938.319C1698.03 982.562 1673.15 1029.42 1628.9 1042.99L901.49 1265.96C851.151 1281.39 799.222 1247.12 793.631 1194.77L741.561 707.49C736.905 663.877 766.669 624.039 809.824 616.155L1471.28 495.262Z" fill="#CF1257"/>
</mask>
<g mask="url(#mask4)">
<path d="M1472.5 495.391C1514.31 487.749 1555.22 512.622 1567.67 553.258L1685.7 938.447C1699.25 982.691 1674.38 1029.55 1630.13 1043.11L902.719 1266.09C852.38 1281.52 800.451 1247.25 794.86 1194.89L742.79 707.618C738.134 664.005 767.898 624.168 811.053 616.284L1472.5 495.391Z" fill="url(#paint2_linear)"/>
</g>
<mask id="mask5" mask-type="alpha" maskUnits="userSpaceOnUse" x="823" y="186" width="1240" height="1164">
<path d="M1894.23 598.529C1933.93 613.694 1955.99 656.183 1945.54 697.38L1846.54 1087.89C1835.17 1132.75 1789.59 1159.89 1744.73 1148.53L1007.22 961.641C956.178 948.707 929.574 892.463 951.964 844.807L1160.33 401.259C1178.98 361.562 1225.09 342.955 1266.07 358.611L1894.23 598.529Z" fill="#CF1257"/>
</mask>
<g mask="url(#mask5)">
<path d="M1895.21 599.276C1934.91 614.442 1956.97 656.93 1946.53 698.128L1847.52 1088.64C1836.15 1133.49 1790.57 1160.64 1745.71 1149.27L1008.2 962.389C957.161 949.454 930.558 893.211 952.948 845.555L1161.31 402.006C1179.96 362.309 1226.08 343.702 1267.06 359.358L1895.21 599.276Z" fill="url(#paint3_linear)"/>
</g>
<mask id="mask6" mask-type="alpha" maskUnits="userSpaceOnUse" x="553" y="-604" width="1379" height="1374">
<path opacity="0.5" d="M863.262 -214.585C855.621 -256.395 880.494 -297.3 921.129 -309.751L1306.32 -427.778C1350.56 -441.335 1397.42 -416.458 1410.99 -372.213L1633.96 355.2C1649.39 405.54 1615.12 457.469 1562.77 463.06L1075.49 515.13C1031.88 519.786 992.039 490.022 984.155 446.867L863.262 -214.585Z" fill="url(#paint4_linear)"/>
</mask>
<g mask="url(#mask6)">
<path opacity="0.7" d="M863.391 -215.814C855.749 -257.624 880.622 -298.529 921.258 -310.98L1306.45 -429.007C1350.69 -442.563 1397.55 -417.686 1411.11 -373.441L1634.09 353.972C1649.52 404.312 1615.25 456.24 1562.89 461.832L1075.62 513.901C1032.01 518.557 992.168 488.793 984.284 445.638L863.391 -215.814Z" fill="#FCC22C"/>
</g>
</g>
</g>
<defs>
<linearGradient id="paint0_linear" x1="596.5" y1="409.274" x2="92.5" y2="-372.226" gradientUnits="userSpaceOnUse">
<stop stop-color="#FCC22C"/>
<stop offset="1" stop-color="#FCC22C" stop-opacity="0"/>
</linearGradient>
<linearGradient id="paint1_linear" x1="469.036" y1="521.511" x2="112.91" y2="951.07" gradientUnits="userSpaceOnUse">
<stop stop-color="#CF1257"/>
<stop offset="1" stop-color="#CF1257" stop-opacity="0"/>
</linearGradient>
<linearGradient id="paint2_linear" x1="716.602" y1="532.807" x2="1049.3" y2="980.759" gradientUnits="userSpaceOnUse">
<stop stop-color="#CF1257"/>
<stop offset="1" stop-color="#CF1257" stop-opacity="0"/>
</linearGradient>
<linearGradient id="paint3_linear" x1="1229.64" y1="238.986" x2="1281.57" y2="794.549" gradientUnits="userSpaceOnUse">
<stop stop-color="#CF1257"/>
<stop offset="1" stop-color="#CF1257" stop-opacity="0"/>
</linearGradient>
<linearGradient id="paint4_linear" x1="1058.93" y1="442.362" x2="1483.73" y2="-384.865" gradientUnits="userSpaceOnUse">
<stop stop-color="#FCC22C"/>
<stop offset="1" stop-color="#FCC22C" stop-opacity="0"/>
</linearGradient>
</defs>
</svg>
